<svg xmlns="http://www.w3.org/2000/svg" xmlns:xlink="http://www.w3.org/1999/xlink" width="375" height="857.369" viewBox="0 0 375 857.369">
  <defs>
    <clipPath id="clip-Professionals">
      <rect width="375" height="857.369"/>
    </clipPath>
  </defs>
  <g id="Professionals" clip-path="url(#clip-Professionals)">
    <rect width="375" height="857.369" fill="#fff"/>
    <rect id="Rectángulo_202" data-name="Rectángulo 202" width="375" height="857.369" fill="#f0faff"/>
    <g id="Grupo_162" data-name="Grupo 162" transform="translate(-10.25 -3376.358)">
      <rect id="Rectángulo_203" data-name="Rectángulo 203" width="319" height="42" rx="10" transform="translate(38.318 3461.457)" fill="#fff" stroke="#96c7f2" stroke-width="1.5"/>
      <text id="Cerca_per_nom_especialitat_ubicació..." data-name="Cerca per nom, especialitat, ubicació..." transform="translate(76.573 3487.323)" fill="#91afc6" font-size="16" font-family="NewZen-Regular, New Zen"><tspan x="0" y="0">Cerca per nom, especialitat, ubicació...</tspan></text>
      <path id="Trazado_51" data-name="Trazado 51" d="M49.054,3476.471a8.673,8.673,0,1,1,15.007,8.7l4.2,4.208a2.054,2.054,0,0,1-2.907,2.9l-4.182-4.172a8.66,8.66,0,0,1-12.114-3.128,7.41,7.41,0,0,1-1.122-3.7v-1.1A9.053,9.053,0,0,1,49.054,3476.471Zm7.559,10.17a5.915,5.915,0,1,0-5.915-5.915A5.915,5.915,0,0,0,56.613,3486.641Z" fill="#c8dff0" stroke="#fff" stroke-width="0.75"/>
    </g>
    <g id="Grupo_163" data-name="Grupo 163" transform="translate(-10.25 -3376.358)">
      <rect id="Rectángulo_204" data-name="Rectángulo 204" width="319" height="42" rx="10" transform="translate(38.318 3518.161)" fill="#d1eaff"/>
      <text id="Tipus_Tots_" data-name="Tipus
Tots " transform="translate(50.698 3535.229)" fill="#023059" font-size="12" font-family="NewZen-Bold, New Zen" font-weight="700"><tspan x="0" y="0">Tipus</tspan><tspan font-family="NewZen-Regular, New Zen" font-weight="400"><tspan x="0" y="14.4">Tots </tspan></tspan></text>
      <text id="_" data-name="▼" transform="translate(83.813 3536.528)" fill="#378dc4" font-size="12" font-family="ArialMT, Arial"><tspan x="0" y="0">▼</tspan></text>
      <text id="Zona_BCN" data-name="Zona
BCN" transform="translate(125.632 3535.229)" fill="#023059" font-size="12" font-family="NewZen-Bold, New Zen" font-weight="700"><tspan x="0" y="0">Zona</tspan><tspan font-family="NewZen-Regular, New Zen" font-weight="400"><tspan x="0" y="14.4">BCN</tspan></tspan></text>
      <line id="Línea_14" data-name="Línea 14" y2="23.521" transform="translate(108.32 3526.229)" fill="none" stroke="#96c7f2" stroke-width="0.5"/>
      <text id="_2" data-name="▼" transform="translate(156 3536.528)" fill="#378dc4" font-size="12" font-family="ArialMT, Arial"><tspan x="0" y="0">▼</tspan></text>
      <text id="Modalitat_Tots" data-name="Modalitat
Tots" transform="translate(197.818 3535.229)" fill="#023059" font-size="12" font-family="NewZen-Bold, New Zen" font-weight="700"><tspan x="0" y="0">Modalitat</tspan><tspan font-family="NewZen-Regular, New Zen" font-weight="400"><tspan x="0" y="14.4">Tots</tspan></tspan></text>
      <line id="Línea_15" data-name="Línea 15" y2="23.521" transform="translate(180.506 3526.229)" fill="none" stroke="#96c7f2" stroke-width="0.5"/>
      <text id="_3" data-name="▼" transform="translate(256.483 3536.528)" fill="#378dc4" font-size="12" font-family="ArialMT, Arial"><tspan x="0" y="0">▼</tspan></text>
    </g>
    <g id="Grupo_165" data-name="Grupo 165" transform="translate(-10.25 -3376.358)">
      <rect id="Rectángulo_205" data-name="Rectángulo 205" width="319" height="130.119" rx="10" transform="translate(38.25 3577.224)" fill="#fff" stroke="#96c7f2" stroke-width="1.5"/>
      <circle id="Elipse_39" data-name="Elipse 39" cx="24.039" cy="24.039" r="24.039" transform="translate(56.046 3590.602)" fill="#d1eaff" stroke="#508bbf" stroke-miterlimit="10" stroke-width="1"/>
      <text id="MP" transform="translate(80.086 3621.559)" fill="#023059" font-size="20.504" font-family="NewZen-Medium, New Zen" font-weight="500"><tspan x="-14.865" y="0">MP</tspan></text>
      <text id="Dra._Marta_Puig" data-name="Dra. Marta Puig" transform="translate(115.422 3603.203)" fill="#023059" font-size="16" font-family="NewZen-SemiBold, New Zen" font-weight="600"><tspan x="0" y="0">Dra. Marta Puig</tspan></text>
      <text id="Psicòloga_especialista_TEA" data-name="Psicòloga especialista TEA" transform="translate(117.206 3625.084)" fill="#023059" font-size="14" font-family="NewZen-Regular, New Zen"><tspan x="0" y="0">Psicòloga especialista TEA</tspan></text>
      <text id="Barcelona_·_Presencial_Online" data-name="Barcelona · Presencial + Online" transform="translate(117.206 3644.875)" fill="#5a7fa0" font-size="12" font-family="NewZen-Regular, New Zen" style="isolation: isolate"><tspan x="0" y="0">Barcelona · Presencial + Online</tspan></text>
      <path id="Trazado_52" data-name="Trazado 52" d="M131.1,3666.608l-3.853-.559-1.727-3.5a1.121,1.121,0,0,0-.878-.612h-.21a1.129,1.129,0,0,0-.871.617l-1.724,3.494-3.875.564a1.106,1.106,0,0,0-.926.981v.2a1.206,1.206,0,0,0,.367.716l2.762,2.69-.664,3.871a1.1,1.1,0,0,0,.9,1.243h0l0,0a.082.082,0,0,1,.021,0h0c.023,0,.046.006.069.009h.156l.049,0,.05-.009h.007l.005,0h0a1.83,1.83,0,0,0,.319-.114l3.462-1.82,3.41,1.792a1.866,1.866,0,0,0,.367.143h-.007l.029.006a.259.259,0,0,0,.05.006h.058c.054,0,.108,0,.161,0,.022,0,.043-.009.065-.011a1.1,1.1,0,0,0,.9-1.275l-.659-3.838,2.78-2.709a1.213,1.213,0,0,0,.34-.622v-.345A1.114,1.114,0,0,0,131.1,3666.608Z" fill="#ffb100"/>
      <text id="_4.9" data-name="4.9" transform="translate(134.601 3673.937)" fill="#ffb100" font-size="12" font-family="NewZen-Bold, New Zen" font-weight="700"><tspan x="0" y="0">4.9</tspan></text>
      <text id="_127_ressenyes_" data-name="(127 ressenyes)" transform="translate(156.212 3674.01)" fill="#5a7fa0" font-size="12" font-family="NewZen-Regular, New Zen" style="isolation: isolate"><tspan x="0" y="0">(127 ressenyes)</tspan></text>
      <g id="Grupo_164" data-name="Grupo 164">
        <rect id="Rectángulo_206" data-name="Rectángulo 206" width="72.657" height="38" rx="12" transform="translate(270.995 3654.381)" fill="#508bbf"/>
        <text id="Veure" transform="translate(284.637 3678.276)" fill="#fff" font-size="17" font-family="NewZen-Bold, New Zen" font-weight="700" style="isolation: isolate"><tspan x="0" y="0">Veure</tspan></text>
      </g>
    </g>
    <g id="Grupo_167" data-name="Grupo 167" transform="translate(-10.25 -3376.358)">
      <rect id="Rectángulo_207" data-name="Rectángulo 207" width="319" height="130.119" rx="10" transform="translate(38.25 3722.343)" fill="#fff" stroke="#96c7f2" stroke-width="1.5"/>
      <circle id="Elipse_40" data-name="Elipse 40" cx="24.039" cy="24.039" r="24.039" transform="translate(56.046 3735.721)" fill="#d1eaff" stroke="#508bbf" stroke-miterlimit="10" stroke-width="1"/>
      <text id="MF" transform="translate(80.086 3766.678)" fill="#023059" font-size="20.504" font-family="NewZen-Medium, New Zen" font-weight="500"><tspan x="-14.137" y="0">MF</tspan></text>
      <text id="Marc_Ferrer" data-name="Marc Ferrer" transform="translate(115.422 3748.321)" fill="#023059" font-size="16" font-family="NewZen-SemiBold, New Zen" font-weight="600"><tspan x="0" y="0">Marc Ferrer</tspan></text>
      <text id="Logopeda_·_Comm._augmentativa" data-name="Logopeda · Comm. augmentativa" transform="translate(117.206 3770.203)" fill="#023059" font-size="14" font-family="NewZen-Regular, New Zen"><tspan x="0" y="0">Logopeda · Comm. augmentativa</tspan></text>
      <text id="Gràcia_BCN_·_Presencial" data-name="Gràcia, BCN · Presencial" transform="translate(117.206 3789.994)" fill="#5a7fa0" font-size="12" font-family="NewZen-Regular, New Zen" style="isolation: isolate"><tspan x="0" y="0">Gràcia, BCN · Presencial</tspan></text>
      <path id="Trazado_53" data-name="Trazado 53" d="M131.1,3811.726l-3.853-.559-1.727-3.5a1.121,1.121,0,0,0-.878-.612h-.21a1.127,1.127,0,0,0-.871.617l-1.724,3.494-3.875.564a1.106,1.106,0,0,0-.926.981v.2a1.2,1.2,0,0,0,.367.715l2.762,2.69-.664,3.871a1.1,1.1,0,0,0,.9,1.243h0l0,0a.076.076,0,0,1,.021.006h0l.069.009h.125l.031,0,.049,0,.05-.009h.007l.005,0h0a2.006,2.006,0,0,0,.319-.114l3.46-1.819h0l3.407,1.791a1.928,1.928,0,0,0,.367.143h-.007l.029.006a.411.411,0,0,0,.05.006h.058c.054,0,.108,0,.161,0a.463.463,0,0,1,.065-.011,1.1,1.1,0,0,0,.9-1.275l-.659-3.838,2.78-2.709a1.217,1.217,0,0,0,.34-.622v-.345A1.114,1.114,0,0,0,131.1,3811.726Z" fill="#ffb100"/>
      <text id="_4.8" data-name="4.8" transform="translate(134.601 3819.055)" fill="#ffb100" font-size="12" font-family="NewZen-Bold, New Zen" font-weight="700"><tspan x="0" y="0">4.8</tspan></text>
      <text id="_89_ressenyes_" data-name="(89 ressenyes)" transform="translate(156.212 3819.128)" fill="#5a7fa0" font-size="12" font-family="NewZen-Regular, New Zen" style="isolation: isolate"><tspan x="0" y="0">(89 ressenyes)</tspan></text>
      <g id="Grupo_166" data-name="Grupo 166">
        <rect id="Rectángulo_208" data-name="Rectángulo 208" width="72.657" height="38" rx="12" transform="translate(270.995 3799.499)" fill="#508bbf"/>
        <text id="Veure-2" data-name="Veure" transform="translate(284.637 3823.395)" fill="#fff" font-size="17" font-family="NewZen-Bold, New Zen" font-weight="700" style="isolation: isolate"><tspan x="0" y="0">Veure</tspan></text>
      </g>
    </g>
    <g id="Grupo_169" data-name="Grupo 169" transform="translate(-10.25 -3376.358)">
      <rect id="Rectángulo_209" data-name="Rectángulo 209" width="319" height="130.119" rx="10" transform="translate(39.117 3867.461)" fill="#fff" stroke="#96c7f2" stroke-width="1.5"/>
      <circle id="Elipse_41" data-name="Elipse 41" cx="24.039" cy="24.039" r="24.039" transform="translate(56.913 3880.839)" fill="#d1eaff" stroke="#508bbf" stroke-miterlimit="10" stroke-width="1"/>
      <text id="LS" transform="translate(80.953 3911.797)" fill="#023059" font-size="20.504" font-family="NewZen-Medium, New Zen" font-weight="500"><tspan x="-10.385" y="0">LS</tspan></text>
      <text id="Laura_Sánchez" data-name="Laura Sánchez" transform="translate(116.288 3893.441)" fill="#023059" font-size="16" font-family="NewZen-SemiBold, New Zen" font-weight="600"><tspan x="0" y="0">Laura Sánchez</tspan></text>
      <text id="Terapeuta_ocupacional" data-name="Terapeuta ocupacional" transform="translate(118.073 3915.322)" fill="#023059" font-size="14" font-family="NewZen-Regular, New Zen"><tspan x="0" y="0">Terapeuta ocupacional</tspan></text>
      <text id="Sarrià_BCN_·_Presencial" data-name="Sarrià, BCN · Presencial" transform="translate(118.073 3935.113)" fill="#5a7fa0" font-size="12" font-family="NewZen-Regular, New Zen" style="isolation: isolate"><tspan x="0" y="0">Sarrià, BCN · Presencial</tspan></text>
      <path id="Trazado_54" data-name="Trazado 54" d="M131.967,3956.845l-3.853-.559-1.727-3.5a1.121,1.121,0,0,0-.878-.611h-.21a1.127,1.127,0,0,0-.871.616l-1.724,3.494-3.875.565a1.1,1.1,0,0,0-.926.98v.195a1.2,1.2,0,0,0,.367.716l2.754,2.682.006.019-.662,3.86a1.1,1.1,0,0,0,.9,1.243h0l0,0a.082.082,0,0,1,.021,0h0l.069.01h.125l.031,0,.049,0,.05-.009h0l.006,0,0,0h0a1.982,1.982,0,0,0,.319-.114l3.462-1.821,3.41,1.792a1.864,1.864,0,0,0,.367.143h-.007l.029.006a.3.3,0,0,0,.05.006h.058c.054,0,.108,0,.161,0a.5.5,0,0,1,.065-.01,1.1,1.1,0,0,0,.9-1.276l-.659-3.838,2.78-2.708a1.22,1.22,0,0,0,.34-.623v-.345A1.114,1.114,0,0,0,131.967,3956.845Z" fill="#ffb100"/>
      <text id="_4.7" data-name="4.7" transform="translate(135.468 3964.175)" fill="#ffb100" font-size="12" font-family="NewZen-Bold, New Zen" font-weight="700"><tspan x="0" y="0">4.7</tspan></text>
      <text id="_54_ressenyes_" data-name="(54 ressenyes)" transform="translate(157.079 3964.247)" fill="#5a7fa0" font-size="12" font-family="NewZen-Regular, New Zen" style="isolation: isolate"><tspan x="0" y="0">(54 ressenyes)</tspan></text>
      <g id="Grupo_168" data-name="Grupo 168">
        <rect id="Rectángulo_210" data-name="Rectángulo 210" width="72.657" height="38" rx="12" transform="translate(271.862 3944.618)" fill="#508bbf"/>
        <text id="Veure-3" data-name="Veure" transform="translate(285.504 3968.514)" fill="#fff" font-size="17" font-family="NewZen-Bold, New Zen" font-weight="700" style="isolation: isolate"><tspan x="0" y="0">Veure</tspan></text>
      </g>
    </g>
    <g id="Grupo_171" data-name="Grupo 171" transform="translate(-10.25 -3376.358)">
      <rect id="Rectángulo_211" data-name="Rectángulo 211" width="319" height="130.119" rx="10" transform="translate(39.117 4012.58)" fill="#fff" stroke="#96c7f2" stroke-width="1.5"/>
      <circle id="Elipse_42" data-name="Elipse 42" cx="24.039" cy="24.039" r="24.039" transform="translate(56.913 4025.958)" fill="#d1eaff" stroke="#508bbf" stroke-miterlimit="10" stroke-width="1"/>
      <text id="MP-2" data-name="MP" transform="translate(80.953 4056.915)" fill="#023059" font-size="20.504" font-family="NewZen-Medium, New Zen" font-weight="500"><tspan x="-14.865" y="0">MP</tspan></text>
      <text id="Dra._Marta_Puig-2" data-name="Dra. Marta Puig" transform="translate(116.288 4038.559)" fill="#023059" font-size="16" font-family="NewZen-SemiBold, New Zen" font-weight="600"><tspan x="0" y="0">Dra. Marta Puig</tspan></text>
      <text id="Psicòloga_especialista_TEA-2" data-name="Psicòloga especialista TEA" transform="translate(118.073 4060.441)" fill="#023059" font-size="14" font-family="NewZen-Regular, New Zen"><tspan x="0" y="0">Psicòloga especialista TEA</tspan></text>
      <text id="Barcelona_·_Presencial_Online-2" data-name="Barcelona · Presencial + Online" transform="translate(118.073 4080.232)" fill="#5a7fa0" font-size="12" font-family="NewZen-Regular, New Zen" style="isolation: isolate"><tspan x="0" y="0">Barcelona · Presencial + Online</tspan></text>
      <path id="Trazado_55" data-name="Trazado 55" d="M131.967,4101.963l-3.853-.559-1.727-3.5a1.122,1.122,0,0,0-.878-.612h-.21a1.127,1.127,0,0,0-.871.617L122.7,4101.4l-3.875.564a1.107,1.107,0,0,0-.926.981v.195a1.2,1.2,0,0,0,.367.715l2.762,2.691-.664,3.87a1.1,1.1,0,0,0,.9,1.243h0l0,0,.021.006h0l.069.009h.125l.031,0,.049,0,.05-.009h.007l0,0h0a1.915,1.915,0,0,0,.319-.114l3.46-1.819h.005l3.407,1.791a1.945,1.945,0,0,0,.367.143h-.007l.029.006a.28.28,0,0,0,.05.006h.058c.054,0,.108,0,.161,0,.022,0,.043-.009.065-.011a1.1,1.1,0,0,0,.9-1.275l-.659-3.838,2.78-2.709a1.215,1.215,0,0,0,.34-.622v-.345A1.114,1.114,0,0,0,131.967,4101.963Z" fill="#ffb100"/>
      <text id="_4.9-2" data-name="4.9" transform="translate(135.468 4109.293)" fill="#ffb100" font-size="12" font-family="NewZen-Bold, New Zen" font-weight="700"><tspan x="0" y="0">4.9</tspan></text>
      <text id="_127_ressenyes_2" data-name="(127 ressenyes)" transform="translate(157.079 4109.366)" fill="#5a7fa0" font-size="12" font-family="NewZen-Regular, New Zen" style="isolation: isolate"><tspan x="0" y="0">(127 ressenyes)</tspan></text>
      <g id="Grupo_170" data-name="Grupo 170">
        <rect id="Rectángulo_212" data-name="Rectángulo 212" width="72.657" height="38" rx="12" transform="translate(271.862 4089.736)" fill="#508bbf"/>
        <text id="Veure-4" data-name="Veure" transform="translate(285.504 4113.632)" fill="#fff" font-size="17" font-family="NewZen-Bold, New Zen" font-weight="700" style="isolation: isolate"><tspan x="0" y="0">Veure</tspan></text>
      </g>
    </g>
    <g id="Grupo_281" data-name="Grupo 281" transform="translate(0 0.729)">
      <g id="Grupo_280" data-name="Grupo 280" transform="translate(0 -958.093)">
        <rect id="Rectángulo_308" data-name="Rectángulo 308" width="375" height="58" transform="translate(0 958.093)" fill="#d1eaff" stroke="#96c7f2" stroke-miterlimit="10" stroke-width="1"/>
        <g id="Componente_2_57" data-name="Componente 2 – 57" transform="translate(16 975.972)">
          <rect id="Rectángulo_309" data-name="Rectángulo 309" width="29.861" height="4.985" rx="2.492" fill="#00315c"/>
          <rect id="Rectángulo_310" data-name="Rectángulo 310" width="29.861" height="4.985" rx="2.492" transform="translate(0.098 8.461)" fill="#00315c"/>
          <rect id="Rectángulo_311" data-name="Rectángulo 311" width="29.861" height="4.985" rx="2.492" transform="translate(0.098 17.258)" fill="#023059"/>
        </g>
        <g id="Componente_1_57" data-name="Componente 1 – 57" transform="translate(332.162 972.695)">
          <circle id="Elipse_59" data-name="Elipse 59" cx="14.399" cy="14.399" r="14.399" fill="#023059"/>
        </g>
        <text id="AM" transform="translate(346.561 990.925)" fill="#fff" font-size="11" font-family="NewZen-Regular, New Zen" style="isolation: isolate"><tspan x="-8.057" y="0">AM</tspan></text>
      </g>
    </g>
  </g>
</svg>
